<?xml version="1.0" encoding="UTF-8"?>
<svg id="Layer_1" data-name="Layer 1" xmlns="http://www.w3.org/2000/svg" viewBox="0 0 1080 1080">
  <defs>
    <style>
      .cls-1 {
        fill: #fff;
      }
    </style>
  </defs>
  <path class="cls-1" d="M346.26,1070.9c-5.53,0-11.05-.24-16.55-.71-33.85-2.91-65.97-14.97-92.87-34.87-35.12-25.99-61.25-64.4-77.65-114.16-17.6-53.39-23.73-119.98-18.23-197.91,1.51-21.43,20.11-37.59,41.55-36.07,21.43,1.51,37.58,20.12,36.07,41.55-4.79,67.78,.1,124.33,14.52,168.07,11.27,34.18,28.1,59.74,50.03,75.97,34.85,25.79,77.61,23.3,106,12.39,41.25-15.87,71.89-36.44,60.28-142.57-12.19-111.45-69.11-296.1-190.35-617.42-16.35-43.34-31.68-85.14-43.17-117.72-5.03-14.26-9.14-26.25-11.89-34.67-1.47-4.5-2.55-7.97-3.3-10.63-.56-1.97-.97-3.58-1.28-5.07-3.55-16.78,3.5-28.44,8.03-33.89,8.93-10.76,22.99-15.92,36.76-13.49,7.31,1.29,20.79,5.93,28.98,22.47,.8,1.61,1.68,3.56,2.78,6.12,1.81,4.22,4.3,10.37,7.41,18.27,6.7,17.06,16.11,41.86,27.95,73.7,1.02,2.74,2.08,5.6,3.19,8.59,64.44-31.89,167.78-43.6,251.31-8.8,45.84,19.1,90.93,53.01,126.97,95.48,36.25,42.72,61.23,91.6,70.34,137.64,11.65,58.88-2.72,112.1-40.46,149.84-6.53,6.53-13.68,12.32-21.3,17.41,12.47,3.98,24.96,8.57,37.38,13.91,35.49,15.26,67.23,35.55,94.33,60.32,30.81,28.15,56.9,63.18,77.54,104.12,19.42,38.51,29.64,78.31,30.37,118.31,.7,38.28-7.71,75.44-24.31,107.45-28.81,55.55-80.46,92.61-141.7,101.67-54.5,8.07-100.82,3.51-141.61-13.93-38.31-16.38-70.85-43.81-99.49-83.86-2.54-3.56-5.04-7.19-7.49-10.9-10.31,65-45.42,105.7-109.31,130.27-22.52,8.66-46.71,13.12-70.8,13.12Zm121.68-501.85c5.5,16.67,10.85,33.08,16.15,49.32,39.13,119.89,70.03,214.59,113.07,274.78,41.66,58.26,89.87,77.39,166.41,66.07,36.76-5.44,66.6-26.93,84.01-60.52,22.75-43.86,20.33-101.77-6.46-154.9-69.22-137.27-190.86-151.43-298.18-163.92-26.34-3.07-51.75-6.02-74.99-10.83Zm-32-94.3c2.47,.39,5.26,.86,8.41,1.38,24.74,4.11,70.78,11.76,117.62,11.18,50.54-.62,87.08-10.76,105.65-29.33,19.34-19.34,25.79-46.16,19.15-79.71-13.72-69.37-80.01-146.85-150.91-176.39-66.87-27.87-153.56-13.19-194.29,10.66,21.21,58.09,50.17,138.2,88.82,246.56,1.87,5.25,3.72,10.47,5.54,15.65Z"/>
</svg>