<?xml version="1.0" encoding="UTF-8"?>
<svg id="Layer_1" data-name="Layer 1" xmlns="http://www.w3.org/2000/svg" viewBox="0 0 1080 1080">
  <defs>
    <style>
      .cls-1 {
        fill: #fff;
      }
    </style>
  </defs>
  <path class="cls-1" d="M779.15,1063.66c-14,0-27.57-4.31-40.89-13.04-22.82,8.67-47.44,13.04-73.59,13.04-45.22,0-90.4-11.27-134.28-33.51-27.97-14.17-55.32-32.96-80.48-55.17-65.5,57.4-145.52,88.68-228.28,88.68-70.03,0-125.57-34.12-160.6-98.66-25.2-46.44-39.75-108.12-43.24-183.32-3.11-67.06,2.93-145.19,17.46-225.93C64.19,394.97,124.46,232.81,196.48,121.99c9.03-13.89,27.61-17.84,41.5-8.81,13.89,9.03,17.84,27.61,8.81,41.5-67.89,104.47-124.9,258.37-152.49,411.69-28.7,159.47-21.6,294.34,19.47,370.01,24.57,45.27,59.85,67.28,107.87,67.28,66.95,0,132.08-25.22,186.13-71.55-52.63-61.55-84.65-133.57-84.65-192.16,0-33.15,10.38-61.18,30.01-81.05,21.27-21.53,51.56-32.45,90.03-32.45,50.33,0,79.34,19.26,94.81,35.42,20.54,21.44,31.4,51.42,31.4,86.67,0,57.81-29.16,126.08-77.41,183.53,38.57,33.57,98.62,71.59,172.73,71.59,9.51,0,18.66-.77,27.46-2.32-19.52-29.1-39.32-69.25-58.9-119.47-37.09-95.12-72.08-222.38-98.53-358.36-23.1-118.79-36.97-231.34-39.04-316.92-1.14-46.93,1.29-85.28,7.2-113.99,8.1-39.34,23.28-63.01,46.41-72.36,15.53-6.28,40.79-8.1,72.98,18.89,20.32,17.04,42.43,44.14,67.58,82.85,81.88,125.99,141.71,257.93,175.49,386.12,28.2-7.33,54.08-9.22,77.46-5.65,38.08,5.82,68.34,25.63,89.94,58.86,25.63,39.44,35.26,94.3,27.86,158.67-6.59,57.34-26.62,119.13-56.41,174-26.18,48.24-58.77,89.1-94.24,118.17-41.1,33.69-86.32,51.49-130.78,51.49Zm99.81-497.11c1.73,8.51,3.33,16.99,4.82,25.45,25.15,143.25,13.26,269.56-33.48,355.67-10.28,18.94-22.11,35.72-35.4,50.25,49.52-15.68,98.68-62.79,136.54-132.55,26.21-48.28,43.8-102.35,49.53-152.24,5.71-49.62-.89-91.92-18.56-119.12-12.21-18.79-27.68-29.03-48.7-32.25-15.64-2.39-34.07-.75-54.75,4.79ZM571.38,76.96c-3.63,5.09-13.45,24.22-15.59,83.73-1.83,51.09,2.56,119.42,12.7,197.6,20.49,157.97,61.49,336.14,107,464.98,21.06,59.61,42.03,106.14,62.33,138.27,3.88,6.13,7.49,11.37,10.85,15.85,19.04-13.95,35.37-33.42,48.9-58.35,40.3-74.26,49.93-186.72,27.12-316.68-.8-4.54-1.63-9.1-2.51-13.66-7.17,3.56-14.51,7.45-21.99,11.67-42.88,24.17-74.42,50.13-74.74,50.39-12.76,10.56-31.68,8.77-42.24-4-10.56-12.77-8.77-31.68,4-42.24,1.45-1.2,36.03-29.65,83.51-56.42,12.99-7.32,25.66-13.81,37.97-19.44-31.86-123.64-89.58-251.55-169.16-374-40.4-62.16-61.86-75.1-68.14-77.72Zm-128.22,609.48c-21.84,0-37.77,4.92-47.35,14.61-8.42,8.53-12.7,21.61-12.7,38.89,0,42.96,25.65,99.48,66.68,148.92,36.79-45.47,59.57-98.21,59.57-140.34,0-13.59-2.56-32.46-14.73-45.17-10.75-11.23-28.07-16.92-51.48-16.92Z"/>
</svg>